<svg width="335" height="254" viewBox="0 0 335 254" fill="none" xmlns="http://www.w3.org/2000/svg">
<mask id="mask0_33_235" style="mask-type:alpha" maskUnits="userSpaceOnUse" x="22" y="0" width="309" height="254">
<path d="M22.1708 0H330.776V254H22.1708V0Z" fill="white"/>
</mask>
<g mask="url(#mask0_33_235)">
<path fill-rule="evenodd" clip-rule="evenodd" d="M178.061 254.014C160.602 254.014 142.811 251.097 127.305 243.747C135.135 243.848 143.263 243.903 151.591 243.903C187.965 243.903 220.424 242.867 241.659 241.25C225.763 248.416 202.229 254.014 178.061 254.014ZM254.988 233.528C235.887 231.2 196.758 229.604 151.591 229.604C135.825 229.604 120.791 229.798 107.091 230.15C97.6693 221.358 90.1804 209.744 85.6847 194.707H145.442C147.579 194.707 149.311 192.975 149.311 190.838V76.4331C149.311 74.2966 147.579 72.5647 145.442 72.5647H22.1708C31.7586 64.0364 43.8704 57.7289 55.7564 49.6543C75.5782 36.1884 104.228 0 157.352 0C170.442 0 185.013 2.19559 201.31 7.47002C233.948 18.0333 262.175 30.599 283.895 45.4088H179.376C177.24 45.4088 175.508 47.1405 175.508 49.2773V92.6285C175.508 94.765 177.24 96.497 179.376 96.497H299.879C302.016 96.497 303.747 94.765 303.747 92.6285V61.3368C319.303 76.2759 328.842 93.1527 330.776 112.154C330.646 112.141 330.516 112.134 330.381 112.134H200.62C198.484 112.134 196.752 113.866 196.752 116.002V220.734C196.752 222.871 198.484 224.602 200.62 224.602H261.759C261.563 225.09 261.379 225.581 261.196 226.08C260.326 228.492 258.175 231.021 254.988 233.528Z" fill="#FFF9EC"/>
</g>
<path fill-rule="evenodd" clip-rule="evenodd" d="M127.305 243.747C74.9912 243.056 35.7616 240.189 35.7616 236.754C35.7616 233.778 65.205 231.227 107.091 230.15C113.13 235.786 119.958 240.262 127.305 243.747ZM241.659 241.25C247.082 238.803 251.617 236.179 254.988 233.528C262.941 234.497 267.421 235.593 267.421 236.754C267.421 238.458 257.771 240.021 241.659 241.25Z" fill="#FFF9EC"/>
<path fill-rule="evenodd" clip-rule="evenodd" d="M151.591 243.903C143.263 243.903 135.135 243.848 127.305 243.747C119.958 240.262 113.13 235.786 107.091 230.15C120.791 229.798 135.825 229.604 151.591 229.604C196.758 229.604 235.888 231.2 254.988 233.528C251.617 236.179 247.083 238.803 241.659 241.25C220.424 242.867 187.965 243.903 151.591 243.903Z" fill="#FFF2D8"/>
<path fill-rule="evenodd" clip-rule="evenodd" d="M330.381 224.602H261.759C275.403 190.377 322.939 185.069 330.433 129.728C331.253 123.678 331.353 117.821 330.776 112.154C332.726 112.352 334.249 113.999 334.249 116.002V220.734C334.249 222.871 332.518 224.602 330.381 224.602Z" fill="#FFF2D8"/>
<path fill-rule="evenodd" clip-rule="evenodd" d="M261.759 224.602H200.62C198.484 224.602 196.752 222.871 196.752 220.734V116.002C196.752 113.866 198.484 112.134 200.62 112.134H330.381C330.516 112.134 330.646 112.141 330.776 112.154C331.353 117.821 331.253 123.678 330.433 129.728C322.939 185.069 275.403 190.377 261.759 224.602Z" fill="#FDEBC8"/>
<path fill-rule="evenodd" clip-rule="evenodd" d="M208.169 164.416H261.196V122.101H208.169V164.416Z" fill="#FFD4B7"/>
<path fill-rule="evenodd" clip-rule="evenodd" d="M322.832 204.673V214.636H208.169V194.71H322.832V204.673Z" fill="#FFD4B7"/>
<path fill-rule="evenodd" clip-rule="evenodd" d="M269.306 125.557H322.832V122.101H269.306V125.557Z" fill="#FFD4B7"/>
<path fill-rule="evenodd" clip-rule="evenodd" d="M269.306 133.184H322.832V129.728H269.306V133.184Z" fill="#FFD4B7"/>
<path fill-rule="evenodd" clip-rule="evenodd" d="M269.306 140.811H322.832V137.354H269.306V140.811Z" fill="#FFD4B7"/>
<path fill-rule="evenodd" clip-rule="evenodd" d="M269.306 148.437H322.832V144.981H269.306V148.437Z" fill="#FFD4B7"/>
<path fill-rule="evenodd" clip-rule="evenodd" d="M269.306 156.064H322.832V152.607H269.306V156.064Z" fill="#FFD4B7"/>
<path fill-rule="evenodd" clip-rule="evenodd" d="M208.169 174.06H322.832V170.604H208.169V174.06Z" fill="#FFD4B7"/>
<path fill-rule="evenodd" clip-rule="evenodd" d="M208.169 181.686H322.832V178.23H208.169V181.686Z" fill="#FFD4B7"/>
<path fill-rule="evenodd" clip-rule="evenodd" d="M208.169 189.313H322.832V185.857H208.169V189.313Z" fill="#FFD4B7"/>
<mask id="mask1_33_235" style="mask-type:alpha" maskUnits="userSpaceOnUse" x="0" y="72" width="310" height="123">
<path d="M0 72.5647H309.801V194.707H0V72.5647Z" fill="white"/>
</mask>
<g mask="url(#mask1_33_235)">
<path fill-rule="evenodd" clip-rule="evenodd" d="M269.306 163.69H309.801V160.234H269.306V163.69Z" fill="#FFD4B7"/>
<path fill-rule="evenodd" clip-rule="evenodd" d="M85.6847 194.707H3.85418C1.7177 194.707 -0.0142822 192.975 -0.0142822 190.838V76.4331C-0.0142822 74.2966 1.7177 72.5647 3.85418 72.5647H22.1707C9.74849 83.614 1.5645 98.3902 3.60997 125.557C7.23422 173.693 79.4038 159.664 82.4356 179.958C83.2198 185.207 84.3118 190.114 85.6847 194.707Z" fill="#FFF2D8"/>
</g>
<path fill-rule="evenodd" clip-rule="evenodd" d="M145.442 194.707H85.6848C84.3119 190.114 83.2199 185.207 82.4357 179.958C79.4039 159.664 7.23433 173.693 3.61008 125.557C1.56461 98.3902 9.74861 83.614 22.1708 72.5647H145.442C147.579 72.5647 149.311 74.2966 149.311 76.4331V190.838C149.311 192.975 147.579 194.707 145.442 194.707Z" fill="#FDEBC8"/>
<path fill-rule="evenodd" clip-rule="evenodd" d="M12.3846 179.659H136.912V114.882H12.3846V179.659Z" fill="#FFD4B7"/>
<path fill-rule="evenodd" clip-rule="evenodd" d="M78.7791 91.3658H136.912V87.6122H78.7791V91.3658Z" fill="#FFD4B7"/>
<path fill-rule="evenodd" clip-rule="evenodd" d="M78.7791 99.6486H136.912V95.8948H78.7791V99.6486Z" fill="#FFD4B7"/>
<path fill-rule="evenodd" clip-rule="evenodd" d="M78.7791 107.931H136.912V104.177H78.7791V107.931Z" fill="#FFD4B7"/>
<path fill-rule="evenodd" clip-rule="evenodd" d="M12.3846 91.3658H70.5171V87.6122H12.3846V91.3658Z" fill="#FFD4B7"/>
<path fill-rule="evenodd" clip-rule="evenodd" d="M12.3846 99.6486H70.5171V95.8948H12.3846V99.6486Z" fill="#FFD4B7"/>
<path fill-rule="evenodd" clip-rule="evenodd" d="M12.3846 107.931H70.5171V104.177H12.3846V107.931Z" fill="#FFD4B7"/>
<path fill-rule="evenodd" clip-rule="evenodd" d="M303.747 61.3368C297.94 55.7607 291.295 50.4541 283.895 45.4088H299.879C302.016 45.4088 303.747 47.1405 303.747 49.2772V61.3368Z" fill="#FFF2D8"/>
<path fill-rule="evenodd" clip-rule="evenodd" d="M299.879 96.497H179.376C177.24 96.497 175.508 94.765 175.508 92.6285V49.2772C175.508 47.1405 177.24 45.4088 179.376 45.4088H283.895C291.295 50.4541 297.94 55.7607 303.747 61.3368V92.6285C303.747 94.765 302.016 96.497 299.879 96.497Z" fill="#FDEBC8"/>
<path fill-rule="evenodd" clip-rule="evenodd" d="M244.919 85.5261H293.098V56.3794H244.919V85.5261Z" fill="#FFD4B7"/>
<path fill-rule="evenodd" clip-rule="evenodd" d="M186.156 65.4516H236.08V62.2278H186.156V65.4516Z" fill="#FFD4B7"/>
<path fill-rule="evenodd" clip-rule="evenodd" d="M186.156 72.5646H236.08V69.3409H186.156V72.5646Z" fill="#FFD4B7"/>
<path fill-rule="evenodd" clip-rule="evenodd" d="M186.156 79.6777H236.08V76.4539H186.156V79.6777Z" fill="#FFD4B7"/>
<path fill-rule="evenodd" clip-rule="evenodd" d="M113.868 189.462C113.624 191.73 113.487 194.143 114.53 196.172C115.573 198.201 118.217 199.575 120.215 198.472C121.34 197.851 121.987 196.64 122.571 195.495C125.853 189.065 129.136 182.634 132.418 176.204C135.124 170.902 137.903 165.276 137.559 159.334C137.4 156.588 136.538 153.851 134.879 151.658C133.429 149.742 130.279 146.692 128.112 148.932C125.953 151.162 124.472 155.054 123.106 157.814C119.952 164.187 117.521 170.917 115.873 177.834C114.961 181.662 114.289 185.549 113.868 189.462Z" fill="#F7CFAB"/>
<path fill-rule="evenodd" clip-rule="evenodd" d="M137.533 160.595C137.356 157.54 136.397 154.494 134.551 152.054C132.937 149.922 131.994 144.568 129.583 147.059C127.181 149.541 122.971 155.833 121.451 158.904C119.451 162.945 117.722 167.119 116.257 171.383L131.992 179.012C134.945 173.216 137.908 167.076 137.533 160.595Z" fill="#FF6600"/>
<path fill-rule="evenodd" clip-rule="evenodd" d="M114.361 189.02C115.958 187.075 118.708 186.394 121.208 186.672C123.709 186.95 126.035 188.042 128.308 189.121C132.474 191.1 136.637 193.086 140.8 195.072C145.097 197.122 149.394 199.173 153.691 201.223C154.361 201.543 155.097 201.938 155.313 202.647C155.544 203.407 155.039 204.237 154.35 204.634C153.662 205.031 152.837 205.096 152.044 205.137C145.596 205.472 139.102 204.858 132.823 203.355C129.653 202.596 126.536 201.612 123.506 200.408C120.903 199.373 117.209 198.23 115.105 196.318C113.095 194.491 112.586 191.182 114.361 189.02Z" fill="#EFB18A"/>
<path fill-rule="evenodd" clip-rule="evenodd" d="M141.348 203.511C146.137 202.809 168.868 202.809 173.657 203.511C179.613 204.382 178.717 211.795 177.966 216.231C177.148 221.069 176.146 226.266 172.589 229.648C169.115 232.952 145.889 232.952 142.416 229.648C138.859 226.266 137.857 221.069 137.038 216.231C136.288 211.795 135.391 204.382 141.348 203.511Z" fill="#1B415F"/>
<path fill-rule="evenodd" clip-rule="evenodd" d="M224.756 223.838C227.256 226.595 228.887 231.118 226.72 233.983C224.884 236.41 173.564 231.636 165.974 231.636C160.582 224.762 160.795 214.324 174.614 207.289C177.57 205.784 180.817 207.366 184.03 208.042C193.327 209.997 218.545 216.989 224.756 223.838Z" fill="#1B415F"/>
<path fill-rule="evenodd" clip-rule="evenodd" d="M113.787 174.854C110.079 174.532 105.985 175.973 104.18 179.228C102.703 181.889 103.02 185.254 104.264 188.032C105.507 190.81 107.569 193.126 109.599 195.394C138.944 228.174 139.419 229.659 144.325 230.975C152.686 233.218 162.781 230.941 155.37 211.741C154.175 208.647 122.998 175.656 113.787 174.854Z" fill="#1B415F"/>
<path fill-rule="evenodd" clip-rule="evenodd" d="M139.9 241.896C137.946 240.754 134.072 235.719 129.538 229.087L138.073 226.08C140.863 235.981 141.948 243.089 139.9 241.896Z" fill="#F7CFAB"/>
<path fill-rule="evenodd" clip-rule="evenodd" d="M106.355 175.402C111.561 172.891 116.693 173.545 120.849 180.282C126.453 189.365 133.973 211.534 138.073 226.08L128.281 230.517C122.083 216.372 109.864 198.027 105.132 189.694C102.478 185.022 102.248 177.383 106.355 175.402Z" fill="#1E4B79"/>
<path fill-rule="evenodd" clip-rule="evenodd" d="M165.786 232.644L170.024 240.565C163.693 240.983 158.6 241.054 156.453 240.165C154.293 239.269 158.604 236.113 165.786 232.644Z" fill="#F7CFAB"/>
<path fill-rule="evenodd" clip-rule="evenodd" d="M215.893 223.704C223.809 223.704 227.717 227.774 227.717 230.64C227.717 235.515 224.709 240.728 217.213 240.728C207.681 240.728 183.798 240.401 169.15 241.401L165.786 232.644C176.594 227.423 204.315 223.704 215.893 223.704Z" fill="#1E4B79"/>
<path fill-rule="evenodd" clip-rule="evenodd" d="M153.318 239.054C153.607 238.874 155.787 235.658 157.21 235.089C158.036 234.759 159.15 234.235 160.035 234.668C161.039 235.159 161.085 236.553 161.68 237.394C162.128 238.023 162.74 238.541 163.435 238.884L164.82 237.023C169.721 239.288 165.827 244.986 170.743 247.331C172.044 247.95 173.474 248.366 174.527 249.378C175.068 249.896 175.448 250.577 175.504 251.324C175.59 252.48 174.941 253.18 174.107 253.506L165.816 249.482C160.861 247.078 156.571 243.498 153.318 239.054Z" fill="#1B415F"/>
<path fill-rule="evenodd" clip-rule="evenodd" d="M129.188 242.314C129.137 241.004 129.683 239.917 130.246 239.612C130.808 239.307 131.686 237.111 132.851 233.897C133.383 232.427 136.351 232.016 137.834 234.547C138.314 235.368 138.761 235.901 139.301 235.883C139.753 235.868 140.26 235.082 140.694 235.601C141.078 236.06 141.181 237.269 141.278 238.129C141.446 239.614 141.598 241.108 141.757 242.598C141.793 242.929 141.827 243.271 141.838 243.612H129.459C129.311 243.248 129.208 242.806 129.188 242.314Z" fill="#1B415F"/>
<path fill-rule="evenodd" clip-rule="evenodd" d="M201.137 189.462C201.381 191.73 201.517 194.143 200.474 196.172C199.432 198.201 196.787 199.575 194.79 198.472C193.664 197.851 193.018 196.64 192.434 195.495C189.151 189.065 185.869 182.634 182.586 176.204C179.88 170.902 177.102 165.276 177.445 159.334C177.604 156.588 178.466 153.851 180.126 151.658C181.575 149.742 184.726 146.692 186.893 148.932C189.051 151.162 190.533 155.054 191.899 157.814C195.052 164.187 197.484 170.917 199.132 177.834C200.043 181.662 200.715 185.549 201.137 189.462Z" fill="#F7CFAB"/>
<path fill-rule="evenodd" clip-rule="evenodd" d="M177.449 160.595C177.625 157.54 178.584 154.494 180.431 152.054C182.044 149.922 182.987 144.568 185.399 147.059C187.801 149.541 192.011 155.833 193.531 158.904C195.531 162.945 197.26 167.119 198.725 171.383L182.989 179.012C180.036 173.216 177.074 167.076 177.449 160.595Z" fill="#FF6600"/>
<path fill-rule="evenodd" clip-rule="evenodd" d="M200.224 190.143C198.628 188.198 195.877 187.517 193.377 187.795C190.876 188.072 188.55 189.165 186.277 190.244C182.111 192.223 177.948 194.209 173.786 196.195C169.488 198.245 165.191 200.296 160.894 202.346C160.225 202.666 159.488 203.06 159.272 203.77C159.041 204.53 159.546 205.36 160.235 205.757C160.923 206.154 161.748 206.218 162.541 206.259C168.99 206.595 175.483 205.98 181.762 204.478C184.932 203.719 188.049 202.735 191.079 201.53C193.682 200.496 197.376 199.353 199.48 197.441C201.49 195.614 201.999 192.304 200.224 190.143Z" fill="#F7CFAB"/>
<path fill-rule="evenodd" clip-rule="evenodd" d="M128.941 147.769C130.474 145.913 132.783 144.9 135.044 144.071C141.687 141.635 156.927 135.26 157.502 135.271C158.078 135.26 173.317 141.635 179.961 144.071C182.221 144.9 184.53 145.913 186.064 147.769C188.11 150.246 188.376 153.804 187.64 156.931C186.905 160.058 185.301 162.897 183.9 165.788C182.153 169.394 180.707 173.146 179.572 176.989C177.522 183.931 176.487 191.174 176.519 198.413C176.529 200.633 177.708 204.387 177.026 206.481C176.17 209.11 171.635 209.706 169.345 210.001C165.421 210.507 161.455 210.674 157.502 210.509C153.55 210.674 149.583 210.507 145.66 210.001C143.37 209.706 138.835 209.11 137.978 206.481C137.296 204.387 138.475 200.633 138.485 198.413C138.517 191.174 137.482 183.931 135.432 176.989C134.298 173.146 132.852 169.394 131.105 165.788C129.704 162.897 128.1 160.058 127.364 156.931C126.629 153.804 126.895 150.246 128.941 147.769Z" fill="#FF6600"/>
<path fill-rule="evenodd" clip-rule="evenodd" d="M152.493 134.496C153.112 132.502 153.445 128.775 154.677 127.449C155.417 126.652 159.279 126.652 160.019 127.449C161.251 128.775 161.584 132.502 162.203 134.496C162.897 136.729 163.502 139.407 162.777 141.616C162.27 143.163 161.196 144.091 160.107 144.404C159.199 144.664 155.498 144.664 154.589 144.404C153.501 144.091 152.426 143.163 151.919 141.616C151.194 139.407 151.799 136.729 152.493 134.496Z" fill="#F7CFAB"/>
<path fill-rule="evenodd" clip-rule="evenodd" d="M149.17 117.707C150.413 114.085 164.283 114.085 165.526 117.707C166.515 120.588 166.656 123.839 166.093 126.873C165.562 129.738 164.404 132.334 162.782 134.484C161.675 135.951 153.021 135.951 151.915 134.484C150.292 132.334 149.134 129.738 148.603 126.873C148.04 123.839 148.181 120.588 149.17 117.707Z" fill="#FBDFC3"/>
<path fill-rule="evenodd" clip-rule="evenodd" d="M136.872 207.298H178.939C180.906 207.298 182.545 205.79 182.71 203.83L184.894 177.834C185.079 175.627 183.338 173.732 181.122 173.732H134.688C132.473 173.732 130.731 175.627 130.916 177.834L133.1 203.83C133.265 205.79 134.904 207.298 136.872 207.298Z" fill="#1E4B79"/>
<path fill-rule="evenodd" clip-rule="evenodd" d="M184.8 178.946C184.4 177.3 182.917 176.057 181.122 176.057H134.688C132.893 176.057 131.41 177.3 131.01 178.946L130.916 177.834C130.731 175.627 132.473 173.732 134.688 173.732H181.122C183.338 173.732 185.079 175.627 184.894 177.834L184.8 178.946Z" fill="#1B415F"/>
<path fill-rule="evenodd" clip-rule="evenodd" d="M159.973 136.555H154.985C152.286 136.555 150.098 134.367 150.098 131.668V122.035C150.098 119.336 152.286 117.148 154.985 117.148H159.973C162.673 117.148 164.861 119.336 164.861 122.035V131.668C164.861 134.367 162.673 136.555 159.973 136.555Z" fill="#FBDFC3"/>
<path fill-rule="evenodd" clip-rule="evenodd" d="M154.162 109.616C155.451 109.923 156.779 109.398 158.017 108.9C159.254 108.402 160.553 107.877 161.862 108.076C163.171 108.275 164.448 109.49 164.278 110.891C166.043 110.195 168.184 110.777 169.422 112.291C170.661 113.805 170.914 116.15 170.031 117.925C169.498 118.998 168.604 119.855 168.215 120.996C167.77 122.3 168.283 125.43 166.729 126.029C165.529 126.491 164.861 116.951 161.495 116.71C159.709 118.618 156.734 119.106 154.495 117.858C153.654 117.39 152.764 116.682 151.86 116.987C151.257 117.191 150.514 117.481 150.125 118.019C149.186 119.315 149.461 125.221 148.166 126.196C147.473 124.109 147.201 121.868 147.352 119.661C146.766 119.676 146.177 119.582 145.629 119.358C144.04 118.707 144.082 107.215 154.162 109.616Z" fill="#1B415F"/>
<path fill-rule="evenodd" clip-rule="evenodd" d="M167.659 126.64C167.994 126.021 168.271 125.317 168.178 124.61C168.085 123.902 167.498 123.229 166.833 123.311C166.423 123.361 166.076 123.679 165.865 124.058C165.653 124.437 165.556 124.874 165.461 125.303C165.297 126.052 165.132 126.801 164.967 127.549C164.828 128.179 164.746 128.979 165.246 129.345C166.159 130.015 167.295 127.314 167.659 126.64Z" fill="#FBDFC3"/>
<path fill-rule="evenodd" clip-rule="evenodd" d="M147.144 126.64C146.809 126.021 146.532 125.317 146.625 124.61C146.718 123.902 147.305 123.229 147.97 123.311C148.38 123.361 148.727 123.679 148.938 124.058C149.15 124.437 149.247 124.874 149.341 125.303C149.506 126.052 149.671 126.801 149.836 127.549C149.974 128.179 150.057 128.979 149.557 129.345C148.643 130.015 147.508 127.314 147.144 126.64Z" fill="#FBDFC3"/>
</svg>
